<svg width="45" height="45" viewBox="0 0 45 45" fill="none" xmlns="http://www.w3.org/2000/svg">
<path d="M20.6381 39.375H18.0094C11.2875 39.375 7.9275 39.375 5.83875 37.2469C3.75 35.1187 3.75 31.6931 3.75 24.8438C3.75 17.9944 3.75 14.5688 5.83875 12.4406C7.9275 10.3125 11.2875 10.3125 18.0094 10.3125H25.14C31.8619 10.3125 35.2237 10.3125 37.3125 12.4406C38.3569 13.5056 38.88 14.895 39.1406 16.875" stroke="#08276F" stroke-width="1.5" stroke-linecap="round" stroke-linejoin="round"/>
<path d="M35.9213 37.1794C35.5876 37.8467 35.5327 38.6193 35.7686 39.3271C36.0046 40.035 36.512 40.6201 37.1794 40.9537C37.8467 41.2874 38.6193 41.3423 39.3271 41.1064C40.035 40.8704 40.6201 40.363 40.9537 39.6956C41.119 39.3652 41.2175 39.0054 41.2437 38.6369C41.2699 38.2684 41.2232 37.8984 41.1064 37.5479C40.9896 37.1974 40.8048 36.8733 40.5628 36.5943C40.3207 36.3152 40.0261 36.0865 39.6956 35.9213C39.3652 35.756 39.0054 35.6575 38.6369 35.6313C38.2684 35.6051 37.8984 35.6518 37.5479 35.7686C37.1974 35.8854 36.8733 36.0702 36.5943 36.3122C36.3152 36.5543 36.0865 36.8489 35.9213 37.1794ZM35.9213 37.1794L29.7038 34.0706M29.7038 34.0706C29.4203 34.6372 28.9539 35.0916 28.3801 35.36C27.8062 35.6285 27.1586 35.6953 26.542 35.5497C25.9254 35.4041 25.376 35.0546 24.9829 34.5578C24.5897 34.061 24.3758 33.446 24.3758 32.8125C24.3758 32.179 24.5897 31.564 24.9829 31.0672C25.376 30.5704 25.9254 30.2209 26.542 30.0753C27.1586 29.9297 27.8062 29.9965 28.3801 30.265C28.9539 30.5334 29.4203 30.9878 29.7038 31.5544M29.7038 34.0706C29.8991 33.68 30.0008 33.2493 30.0008 32.8125C30.0008 32.3757 29.8991 31.945 29.7038 31.5544M35.9213 28.4456C36.0847 28.7789 36.3125 29.0765 36.5915 29.3213C36.8706 29.5661 37.1953 29.7532 37.547 29.8719C37.8987 29.9906 38.2704 30.0385 38.6407 30.0129C39.011 29.9872 39.3726 29.8885 39.7045 29.7225C40.0365 29.5564 40.3323 29.3263 40.5749 29.0454C40.8176 28.7645 41.0022 28.4383 41.1181 28.0857C41.2341 27.7331 41.2791 27.361 41.2506 26.9909C41.222 26.6208 41.1205 26.26 40.9519 25.9294C40.6147 25.2683 40.0299 24.7672 39.325 24.5354C38.62 24.3035 37.8519 24.3597 37.1882 24.6917C36.5245 25.0237 36.0189 25.6046 35.7816 26.3077C35.5442 27.0109 35.5944 27.7793 35.9213 28.4456ZM35.9213 28.4456L29.7038 31.5544M30 10.3125L29.8125 9.73125C28.8844 6.84375 28.4213 5.4 27.3169 4.575C26.2106 3.75 24.7444 3.75 21.8063 3.75H21.3131C18.3787 3.75 16.9106 3.75 15.8063 4.575C14.7 5.4 14.2369 6.84375 13.3088 9.73125L13.125 10.3125" stroke="#08276F" stroke-width="1.5" stroke-linecap="round" stroke-linejoin="round"/>
</svg>
